<svg width="130" height="130" viewBox="0 0 130 130" fill="none" xmlns="http://www.w3.org/2000/svg">
<path d="M130 65C130 29.1015 100.899 0 65 0C29.1015 0 0 29.1015 0 65C0 100.899 29.1015 130 65 130C100.899 130 130 100.899 130 65Z" fill="#D8B050"/>
<path d="M97.6975 40.8365L88.5218 51.3941C87.9339 52.0701 86.9132 52.1394 86.2372 51.5516L85.9108 51.2692C85.2396 50.6836 85.1655 49.6628 85.7533 48.9869L94.9729 38.3808C96.4868 36.6425 95.7692 35.1031 94.6442 34.1262C93.5215 33.1518 91.8989 32.654 90.385 34.3948L81.1655 45.001C80.5799 45.6746 79.5568 45.7463 78.8832 45.1585L78.5591 44.8761C77.8831 44.2905 77.8114 43.2674 78.397 42.5938L87.5749 32.0362C90.2855 28.9206 85.7532 25.1661 83.1075 28.21C79.9386 31.8534 74.344 38.2883 74.344 38.2883C69.4552 43.8715 69.5293 46.4872 70.2191 50.1513C70.7792 53.105 71.6009 55.2298 68.5664 58.7205L64.0874 63.8731L68.7864 69.2734L73.9182 63.3708C76.9505 59.8824 79.1703 60.4009 82.1726 60.5421C85.8993 60.7203 88.4987 60.4286 93.3458 54.8131C93.3458 54.8131 98.9406 48.3735 102.109 44.73C104.755 41.6861 100.406 37.7233 97.6975 40.8365Z" fill="white"/>
<path d="M34.5749 35.1614C31.1954 31.2796 25.0105 34.9531 27.7766 41.0732C29.6192 45.1564 33.1792 55.1352 38.149 62.3225C43.1211 69.5098 48.4195 68.7413 53.7711 70.4819L57.6159 72.4703L83.9183 102.722L89.2375 98.0947L89.2653 98.0715C88.4876 97.1757 64.5671 69.6603 55.109 58.7834C45.7481 48.0174 36.2184 37.0524 34.5749 35.1614Z" fill="white"/>
<path d="M54.6023 74.7822L34.3577 98.0686L39.707 102.721L59.535 79.9163L55.4541 75.2221L54.6023 74.7822Z" fill="white"/>
</svg>
